<svg width="150" height="150" viewBox="0 0 150 150" fill="none" xmlns="http://www.w3.org/2000/svg">
<path d="M63.4277 0.410156C59.707 1.31836 56.5722 3.80859 54.9316 7.11914C53.7304 9.58008 53.4961 10.7227 52.998 16.3184C52.7929 18.6035 52.5586 20.625 52.4414 20.8008C52.3242 20.9766 50.4199 21.5625 48.164 22.1191C32.2851 25.9277 20.8886 32.373 15.5566 40.5469C10.3711 48.5156 10.957 56.9824 17.2851 64.834C21.9433 70.6348 31.4062 76.2305 41.748 79.3066C42.5683 79.541 43.33 79.834 43.4472 79.9805C43.5937 80.0977 43.8281 81.6211 43.9746 83.3496C44.414 88.5938 45.791 92.9297 48.3984 97.2656C50.3613 100.576 54.1406 104.531 57.1582 106.553C57.7734 106.963 58.3008 107.461 58.3008 107.637C58.3008 107.812 57.1582 111.152 55.7519 115.049L53.1738 122.168H43.7988C33.1933 122.168 31.6992 122.373 28.125 124.102C25.0781 125.625 21.8554 128.818 20.4199 131.836C19.3945 133.945 16.6992 144.111 16.6992 145.781C16.6992 147.832 18.955 150 21.0937 150C22.5293 150 24.2285 148.975 24.8437 147.715C25.166 147.129 25.957 144.287 26.6308 141.445C27.5976 137.461 28.0664 135.967 28.7695 134.912C30.6152 132.129 33.2226 130.957 37.5586 130.957H40.1367V138.721C40.1367 145.957 40.166 146.602 40.7226 147.656C41.3965 148.975 43.0664 150 44.5312 150C45.9961 150 47.666 148.975 48.3398 147.656C48.8965 146.602 48.9258 145.957 48.9258 138.721V130.957H51.709H54.4629L56.9531 132.568C68.0273 139.775 81.9726 139.775 93.0468 132.568L95.5371 130.957H98.291H101.074V138.721C101.074 145.957 101.103 146.602 101.66 147.656C102.334 148.975 104.004 150 105.469 150C106.934 150 108.603 148.975 109.277 147.656C109.834 146.602 109.863 145.957 109.863 138.721V130.957H112.441C116.777 130.957 119.385 132.129 121.23 134.912C121.934 135.967 122.432 137.52 123.486 141.826C124.219 144.902 125.039 147.744 125.303 148.125C125.889 149.062 127.734 150 128.906 150C131.045 150 133.301 147.832 133.301 145.781C133.301 144.111 130.605 133.945 129.58 131.836C128.145 128.818 124.922 125.625 121.875 124.102C118.301 122.373 116.807 122.168 106.201 122.168H96.8261L94.248 115.049C92.8418 111.152 91.6992 107.812 91.6992 107.637C91.6992 107.461 92.2265 106.963 92.8418 106.553C95.8593 104.531 99.6386 100.576 101.602 97.2656C104.209 92.9297 105.586 88.5938 106.025 83.3496C106.172 81.6211 106.406 80.0977 106.553 79.9805C106.67 79.8633 108.252 79.3066 110.01 78.7207C118.77 75.8496 125.654 71.9238 130.752 66.8848C140.596 57.1289 140.332 45.4688 130.049 35.5957C123.633 29.4434 113.525 24.668 100.869 21.8262C99.1406 21.4453 97.6758 20.9766 97.5586 20.8008C97.4414 20.625 97.207 18.6035 97.0019 16.3184C96.5039 10.7227 96.2695 9.58008 95.0683 7.11914C93.3691 3.69141 90.0586 1.14258 86.1914 0.322266C83.9941 -0.146484 65.3906 -0.0585938 63.4277 0.410156ZM85.5761 9.43359C87.1875 10.3418 87.7734 11.748 88.1543 15.9375C88.3593 17.8418 88.4472 19.4824 88.3593 19.541C88.2715 19.6289 86.3086 19.541 83.9941 19.3652C78.6035 18.9551 71.8359 18.9551 66.2109 19.3652C63.7793 19.541 61.7285 19.6289 61.6406 19.541C61.5527 19.4824 61.6406 17.8418 61.8457 15.9375C62.2265 11.8066 62.8125 10.3418 64.3652 9.43359C65.4492 8.81836 65.7715 8.78906 74.9707 8.78906C84.1699 8.78906 84.4629 8.81836 85.5761 9.43359ZM88.1836 28.5645C101.103 30.1172 112.5 33.7793 120.205 38.8769C123.311 40.8984 126.855 44.5605 127.969 46.875C130.225 51.5039 129.228 55.8691 124.863 60.4101C121.611 63.8086 116.748 66.7676 110.332 69.2871C108.428 70.0195 106.816 70.5762 106.728 70.5176C106.67 70.4297 106.816 64.8926 107.08 58.2129L107.578 46.0547L106.963 44.8535C106.084 43.1836 104.941 42.6855 98.9941 41.4844C82.7343 38.2324 67.2656 38.2324 50.9765 41.4844C45.2636 42.6562 43.8281 43.2422 43.0078 44.8828C42.4511 45.9375 42.4511 46.2598 42.9199 58.1543C43.1836 64.8633 43.3593 70.4297 43.3008 70.4883C43.0371 70.7227 36.6797 68.1152 33.6914 66.5332C28.1836 63.6328 23.7011 59.6484 21.9433 56.1035C21.0351 54.2578 20.9472 53.8184 20.9472 51.5625C20.9472 49.3652 21.0644 48.8379 21.8554 47.1387C23.4961 43.6816 27.7148 39.8144 33.1054 36.8262C40.5175 32.7246 52.1484 29.5312 63.5742 28.4473C65.4199 28.2715 67.4707 28.0664 68.1152 28.0078C70.8398 27.7441 84.4629 28.125 88.1836 28.5645ZM85.8398 48.3398C88.7988 48.6328 97.5293 49.9805 98.2324 50.2734C98.6718 50.4199 97.5293 82.2656 96.9726 85.2246C94.7754 97.2363 82.6464 105.41 70.664 102.949C61.9043 101.162 54.9902 94.3945 53.1445 85.8691C52.7343 83.9062 51.4453 55.6348 51.6211 52.0605L51.709 50.2734L53.4668 49.9219C56.6601 49.248 63.6621 48.3398 67.3828 48.0469C71.6601 47.7539 81.416 47.9004 85.8398 48.3398ZM70.2832 111.797C73.5058 112.324 78.6914 112.207 81.5918 111.504C82.5586 111.27 83.3789 111.094 83.4082 111.152C83.4375 111.182 84.6093 114.287 85.957 118.066C87.7441 122.93 88.3886 125.01 88.1543 125.273C87.6269 125.918 83.7011 127.676 81.2988 128.379C78.0175 129.287 72.1289 129.287 68.7304 128.379C66.4453 127.734 62.3437 125.889 61.8164 125.244C61.6406 125.01 62.4023 122.52 64.0722 117.949C66.0351 112.559 66.6797 111.035 67.0312 111.182C67.2656 111.27 68.7304 111.562 70.2832 111.797Z" fill="white"/>
</svg>
