<svg width="164" height="164" viewBox="0 0 164 164" fill="none" xmlns="http://www.w3.org/2000/svg">
<path d="M71.1564 38.8056L45.784 9.5199C42.859 6.1451 37.4966 6.1601 34.0991 9.5649L13.2342 30.4661C7.02424 36.6833 5.24675 45.9152 8.83923 53.3173C30.3013 97.7519 66.1393 133.638 110.546 155.161C117.941 158.753 127.166 156.976 133.376 150.759L154.436 129.663C157.848 126.25 157.856 120.858 154.451 117.933L125.051 92.6974C121.976 90.0576 117.199 90.4025 114.116 93.4924L103.886 103.737C103.362 104.286 102.673 104.647 101.924 104.767C101.175 104.886 100.407 104.756 99.7387 104.397C83.0172 94.768 69.1463 80.8798 59.539 64.1466C59.1792 63.4773 59.0489 62.7084 59.1681 61.9579C59.2873 61.2074 59.6495 60.5168 60.199 59.9919L70.3989 49.785C73.4889 46.6802 73.8264 41.8805 71.1564 38.7981V38.8056Z" stroke="white" stroke-width="12.5" stroke-linecap="round" stroke-linejoin="round"/>
</svg>
