<svg width="150" height="150" viewBox="0 0 150 150" fill="none" xmlns="http://www.w3.org/2000/svg">
<path d="M22.793 0.615234C21.5332 1.25977 20.5078 2.98828 20.5078 4.39453C20.5078 5.83008 21.5332 7.5293 22.793 8.14453C23.4668 8.49609 24.8437 8.78906 26.3965 8.90625C32.8125 9.375 38.9648 12.8027 42.5977 17.9883C43.3008 18.9551 43.9453 19.9219 44.0625 20.127C44.1504 20.3027 43.418 20.127 42.4219 19.7168C39.7559 18.6328 37.9687 18.1934 35.3027 17.9883C33.252 17.8125 32.7832 17.8711 31.6992 18.4277C30.3223 19.1309 29.2969 20.7715 29.2969 22.2656C29.2969 24.6387 31.4648 26.6602 34.043 26.6602C36.9141 26.6602 40.2246 28.0371 42.5977 30.2051C43.9746 31.4648 45.9961 34.5703 45.9961 35.4199C45.9961 35.5957 45.4687 35.7422 44.707 35.7422C41.543 35.7422 36.0352 37.1777 32.8125 38.8477C26.5723 42.0996 22.8516 47.9004 21.2109 56.9824C20.4785 60.9375 20.4785 72.2754 21.2109 78.8086C23.0859 95.9473 27.1875 114.404 31.8164 126.943C36.3574 139.16 41.2207 146.279 46.875 148.945C48.5449 149.736 49.1016 149.854 51.2988 149.854C53.584 149.854 53.9648 149.766 56.0449 148.74C58.5352 147.51 61.1719 145.107 63.1055 142.295L64.248 140.654L65.8887 142.119C69.5508 145.4 74.1797 147.832 79.248 149.15C83.0566 150.146 89.7949 150.146 93.5742 149.15C101.426 147.1 107.959 142.441 112.207 135.879C117.129 128.291 118.477 118.74 115.84 110.391C115.43 109.102 115.195 107.93 115.342 107.812C115.459 107.725 116.367 107.314 117.334 106.963C119.824 106.025 122.402 104.531 124.863 102.568C128.965 99.3164 129.961 97.6465 129.229 95.2148C128.877 93.9844 126.064 91.2012 123.75 89.7363L122.52 88.9453L122.549 85.8105C122.607 83.0566 122.52 82.5586 121.992 81.8555C120.674 80.0684 120.029 79.834 116.719 79.834H113.672L111.768 77.2852C109.541 74.3262 108.486 73.3594 106.992 72.9492C105.234 72.4805 103.799 73.0371 102.041 74.8535C98.7598 78.2227 96.709 81.6211 94.8926 86.6602C94.043 89.0625 93.8379 89.3555 93.3105 89.2383C90.498 88.4766 83.7012 88.3301 80.7422 88.9746C79.9512 89.1211 79.9219 89.0918 80.0977 88.3008C80.4492 86.6016 81.4453 77.9883 81.7383 73.9746C83.291 52.7051 78.3691 41.2793 65.918 37.2656C63.5156 36.5039 59.5312 35.7422 57.8027 35.7422C56.5137 35.7422 56.4844 35.7129 56.6602 34.9805C56.9824 33.7207 58.6816 31.2891 60.1172 30.0293C62.373 28.0371 65.7715 26.6602 68.4961 26.6602C71.0742 26.6602 73.2422 24.6387 73.2422 22.2656C73.2422 20.7715 72.2168 19.1309 70.8398 18.4277C69.7559 17.8711 69.2871 17.8125 67.2363 17.9883C64.5703 18.1934 62.7832 18.6328 60.1172 19.7168C59.1211 20.127 58.3887 20.3027 58.4766 20.127C58.5937 19.9219 59.2383 18.9551 59.9414 17.9883C63.5742 12.8027 69.7266 9.375 76.1426 8.90625C79.2773 8.67188 80.625 8.02734 81.4453 6.44531C83.0859 3.22266 80.8594 0 76.9922 0C74.7363 0 70.4883 0.761719 68.1152 1.55273C61.8457 3.69141 56.1035 7.96875 52.6758 13.0371C51.9727 14.0625 51.3574 14.9121 51.2695 14.9121C51.1816 14.9121 50.5371 14.0625 49.834 13.0078C47.3437 9.28711 43.0078 5.53711 38.8184 3.39844C33.1641 0.527344 25.459 -0.820312 22.793 0.615234ZM60.9375 44.9707C69.3164 46.7871 72.6562 51.9727 73.125 64.0137C73.3008 67.9688 72.9199 76.2012 72.4805 78.7207L72.3047 79.6875H65.7129C59.707 79.6875 59.0625 79.7461 58.0078 80.2734C56.6895 80.9473 55.6641 82.6172 55.6641 84.082C55.6641 85.5469 56.6895 87.2168 58.0078 87.8906C59.0625 88.418 59.707 88.4766 65.1855 88.4766H71.1914L71.0156 89.707C70.2539 95.0391 66.5625 111.592 65.5957 114.17C65.3613 114.814 65.1855 114.844 62.2559 114.844C58.5059 114.844 57.1875 115.371 56.25 117.188C54.5801 120.469 56.8359 123.633 60.8203 123.633C62.4609 123.633 62.4609 123.633 62.2852 124.395C61.875 125.947 58.9453 132.393 57.5391 134.766C55.8691 137.578 53.4375 140.391 52.1484 140.918C50.8887 141.445 49.8633 140.918 47.959 138.867C45 135.645 41.8652 129.375 39.0234 120.85C37.7051 116.924 35.5664 109.57 35.0098 106.992L34.8047 106.055H39.1113C44.1504 106.055 45.293 105.674 46.2891 103.711C47.0215 102.246 47.0215 101.074 46.2891 99.6094C45.2344 97.5586 44.2383 97.2656 38.1445 97.2656H32.8711L32.2559 93.8672C31.1133 87.7441 30.1758 80.4492 29.4727 72.1289L29.3555 70.8984H36.3867C42.832 70.8984 43.4766 70.8398 44.5312 70.3125C45.8496 69.6387 46.875 67.9688 46.875 66.5039C46.875 65.0391 45.8496 63.3691 44.5312 62.6953C43.4766 62.168 42.832 62.1094 36.4453 62.1094H29.502L29.6777 60.0879C29.7656 58.9746 30.0586 57.1582 30.3516 56.0449C32.1387 48.8086 36.0645 45.5859 44.2969 44.5312C47.5781 44.1211 58.3301 44.4141 60.9375 44.9707ZM108.926 88.623C109.512 89.0625 110.186 89.209 111.475 89.209H113.232V90.9668C113.232 93.1641 113.73 93.8965 116.25 95.3613C117.246 95.9473 118.066 96.5332 118.066 96.6504C118.066 97.002 116.191 97.9688 113.408 99.0234L110.625 100.078L108.135 97.5586C106.758 96.1816 104.824 94.541 103.828 93.9258L102.041 92.7539L103.037 90.0293C104.004 87.3047 104.971 85.166 105.557 84.4336C105.791 84.1406 106.143 84.5215 107.021 86.0449C107.637 87.1289 108.516 88.3008 108.926 88.623ZM90.7617 97.7344C94.9805 98.6133 98.4375 100.459 101.631 103.506C110.449 112.031 110.684 125.596 102.158 134.443C93.3984 143.467 79.3945 143.438 70.5469 134.385C68.4961 132.275 68.5254 132.539 70.2832 127.969C72.832 121.348 75.7031 111.27 77.5195 102.598L78.3398 98.7305L79.834 98.291C83.6426 97.1777 87.1875 97.002 90.7617 97.7344Z" fill="white"/>
</svg>
